<svg id="Layer_1" xmlns="http://www.w3.org/2000/svg" width="100" height="100" viewBox="0 0 100 100"><style>.st0{fill:none;stroke:#232323;stroke-linejoin:round;stroke-miterlimit:10}</style><g id="XMLID_245_"><g id="XMLID_204_"><path id="XMLID_210_" class="st0" d="M50.2 39.8l-38 40.1 38 18.1V39.8z"/><path id="XMLID_209_" class="st0" d="M50.2 1.6l-38 78.3 38-40.1V1.6z"/><path id="XMLID_208_" class="st0" d="M12.2 20.1l38 19.7V98l-38-77.9z"/><path id="XMLID_207_" class="st0" d="M50.2 1.6l-38 18.5c.9.4 38 19.7 38 19.7V1.6z"/><path id="XMLID_206_" class="st0" d="M50.2 39.8l10 10 28 30.1-38 18.1V39.8z"/><path id="XMLID_205_" class="st0" d="M50.2 1.6l38 78.3-28-30.1-10-10V1.6z"/><path id="XMLID_211_" class="st0" d="M88.2 20.1l-38 19.7V98l38-77.9z"/><path id="XMLID_212_" class="st0" d="M50.2 1.6l38 18.5c-.9.4-38 19.7-38 19.7V1.6z"/></g><g id="XMLID_223_"><path id="XMLID_231_" class="st0" d="M60.2 49.8l-10-10-30.1-28L2 49.8h58.2z"/><path id="XMLID_230_" class="st0" d="M98.4 49.8l-78.3-38 30.1 28 10 10h38.2z"/><path id="XMLID_229_" class="st0" d="M79.9 11.8l-19.7 38H2l77.9-38z"/><path id="XMLID_228_" class="st0" d="M98.4 49.8l-18.5-38c-.4.9-19.7 38-19.7 38h38.2z"/><path id="XMLID_227_" class="st0" d="M60.2 49.8l-40.1 38L2 49.8h58.2z"/><path id="XMLID_226_" class="st0" d="M98.4 49.8l-78.3 38 40.1-38h38.2z"/><path id="XMLID_225_" class="st0" d="M79.9 87.8l-19.7-38H2l77.9 38z"/><path id="XMLID_224_" class="st0" d="M98.4 49.8l-18.5 38c-.4-.9-19.7-38-19.7-38h38.2z"/></g></g></svg>