<svg id="Layer_1" xmlns="http://www.w3.org/2000/svg" width="1000" height="1000" viewBox="0 0 1000 1000"><style>.st0{fill:none;stroke:#232323;stroke-miterlimit:10}</style><g id="XMLID_1140_"><path id="XMLID_1115_" class="st0" d="M499.7 997.8l218-52.3-218-343.4z"/><path id="XMLID_1114_" class="st0" d="M717.7 945.5L499.7 0v602.1z"/><path id="XMLID_1113_" class="st0" d="M499.7 997.8l-218-52.3 218-343.4z"/><path id="XMLID_1112_" class="st0" d="M281.7 945.5L499.7 0v602.1z"/><path id="XMLID_1107_" class="st0" d="M893.1 805.9L499.7 602.1V0z"/><path id="XMLID_1106_" class="st0" d="M499.7 997.8l393.4-191.9c-8.9-4.6-393.4-203.8-393.4-203.8v395.7z"/><path id="XMLID_1101_" class="st0" d="M106.3 805.9l393.4-203.8V0z"/><path id="XMLID_1100_" class="st0" d="M499.7 997.8L106.3 805.9c8.9-4.6 393.4-203.8 393.4-203.8v395.7z"/><path id="XMLID_1099_" class="st0" d="M499.7 0L995 602.1H499.7z"/><path id="XMLID_1098_" class="st0" d="M995 602.1L499.7 997.8V602.1z"/><path id="XMLID_1097_" class="st0" d="M499.7 0L4.4 602.1h495.3z"/><path id="XMLID_1096_" class="st0" d="M4.4 602.1l495.3 395.7V602.1z"/><path id="XMLID_1095_" class="st0" d="M499.7 0L8.1 402.9l491.6 199.2z"/><path id="XMLID_1094_" class="st0" d="M499.7 997.8L8.1 402.9l491.6 199.2z"/><path id="XMLID_1093_" class="st0" d="M499.7 0l491.6 402.9-491.6 199.2z"/><path id="XMLID_1092_" class="st0" d="M499.7 997.8l491.6-594.9-491.6 199.2z"/><path id="XMLID_1111_" class="st0" d="M499.7 602.1l393.4-414.9L499.7 0z"/><path id="XMLID_1109_" class="st0" d="M499.7 997.8l393.4-810.6-393.4 414.9z"/><path id="XMLID_1105_" class="st0" d="M499.7 602.1L106.3 187.2 499.7 0z"/><path id="XMLID_1103_" class="st0" d="M499.7 997.8L106.3 187.2l393.4 414.9z"/><path id="XMLID_1110_" class="st0" d="M499.7 0l223 47.5-223 554.6z"/><path id="XMLID_1108_" class="st0" d="M499.7 997.8l223-950.3-223 554.6z"/><path id="XMLID_1104_" class="st0" d="M499.7 0l-223 47.5 223 554.6z"/><path id="XMLID_1102_" class="st0" d="M499.7 997.8l-223-950.3 223 554.6z"/></g></svg>