<svg id="Layer_1" xmlns="http://www.w3.org/2000/svg" width="50" height="50" viewBox="0 0 50 50"><style>.st0{fill:none;stroke:#fff;stroke-width:.5;stroke-linejoin:round;stroke-miterlimit:10}</style><g id="XMLID_1140_"><path id="XMLID_1115_" class="st0" d="M25 49.2l10.5-2.5L25 30.2v19z"/><path id="XMLID_1114_" class="st0" d="M35.4 46.7L25 1.2v29l10.4 16.5z"/><path id="XMLID_1113_" class="st0" d="M25 49.2l-10.5-2.5L25 30.2v19z"/><path id="XMLID_1112_" class="st0" d="M14.5 46.7L25 1.2v29L14.5 46.7z"/><path id="XMLID_1107_" class="st0" d="M43.9 39.9L25 30.2v-29l18.9 38.7z"/><path id="XMLID_1106_" class="st0" d="M25 49.2L43.9 40c-.4-.3-18.9-9.8-18.9-9.8v19z"/><path id="XMLID_1101_" class="st0" d="M6 39.9l19-9.7v-29L6 39.9z"/><path id="XMLID_1100_" class="st0" d="M25 49.2L6 39.9c.5-.2 19-9.7 19-9.7v19z"/><path id="XMLID_1099_" class="st0" d="M25 1.2l23.8 29H25v-29z"/><path id="XMLID_1098_" class="st0" d="M48.8 30.2L25 49.2v-19h23.8z"/><path id="XMLID_1097_" class="st0" d="M25 1.2l-23.8 29H25v-29z"/><path id="XMLID_1096_" class="st0" d="M1.1 30.2l23.8 19v-19H1.1z"/><path id="XMLID_1095_" class="st0" d="M25 1.2L1.3 20.6 25 30.2v-29z"/><path id="XMLID_1094_" class="st0" d="M25 49.2L1.3 20.6 25 30.2v19z"/><path id="XMLID_1093_" class="st0" d="M25 1.2l23.7 19.4L25 30.2v-29z"/><path id="XMLID_1092_" class="st0" d="M25 49.2l23.7-28.6L25 30.2v19z"/><path id="XMLID_1111_" class="st0" d="M25 30.2l18.9-19.9L25 1.2v29z"/><path id="XMLID_1109_" class="st0" d="M25 49.2l18.9-39-18.9 20v19z"/><path id="XMLID_1105_" class="st0" d="M25 30.2l-19-20 18.9-9v29z"/><path id="XMLID_1103_" class="st0" d="M25 49.2l-19-39 19 20v19z"/><path id="XMLID_1110_" class="st0" d="M25 1.2l10.7 2.3L25 30.2v-29z"/><path id="XMLID_1108_" class="st0" d="M25 49.2L35.7 3.5 25 30.2v19z"/><path id="XMLID_1104_" class="st0" d="M25 1.2L14.3 3.5 25 30.2v-29z"/><path id="XMLID_1102_" class="st0" d="M25 49.2L14.3 3.5 25 30.2v19z"/></g></svg>