<svg id="Layer_1" xmlns="http://www.w3.org/2000/svg" width="1920" height="1080" viewBox="0 0 1920 1080"><style>.st0{fill:none;stroke:#232323;stroke-miterlimit:10}</style><g id="XMLID_245_"><g id="XMLID_204_"><path id="XMLID_210_" class="st0" d="M959.5 428.1l-425.7 449 425.7 202.5z"/><path id="XMLID_209_" class="st0" d="M959.5 0L533.8 877.1l425.7-449z"/><path id="XMLID_208_" class="st0" d="M533.8 207.6l425.7 220.5v651.5z"/><path id="XMLID_207_" class="st0" d="M959.5 0L533.8 207.6c9.6 5 425.7 220.5 425.7 220.5V0z"/><path id="XMLID_206_" class="st0" d="M959.5 428.1l111.7 111.6 314 337.4-425.7 202.5z"/><path id="XMLID_205_" class="st0" d="M959.5 0l425.7 877.1-314-337.4-111.7-111.6z"/><path id="XMLID_211_" class="st0" d="M1385.2 207.6L959.5 428.1v651.5z"/><path id="XMLID_212_" class="st0" d="M959.5 0l425.7 207.6c-9.6 5-425.7 220.5-425.7 220.5V0z"/></g><g id="XMLID_223_"><path id="XMLID_231_" class="st0" d="M1071.2 539.8L959 427.4 622.2 114.2 419.7 539.8z"/><path id="XMLID_230_" class="st0" d="M1499.3 539.8L622.2 114.2 959 427.4l112.2 112.4z"/><path id="XMLID_229_" class="st0" d="M1291.7 114.2l-220.5 425.6H419.7z"/><path id="XMLID_228_" class="st0" d="M1499.3 539.8l-207.6-425.7c-5 9.6-220.5 425.7-220.5 425.7h428.1z"/><path id="XMLID_227_" class="st0" d="M1071.2 539.8l-449 425.7-202.5-425.7z"/><path id="XMLID_226_" class="st0" d="M1499.3 539.8L622.2 965.5l449-425.7z"/><path id="XMLID_225_" class="st0" d="M1291.7 965.5l-220.5-425.7H419.7z"/><path id="XMLID_224_" class="st0" d="M1499.3 539.8l-207.6 425.7c-5-9.6-220.5-425.7-220.5-425.7h428.1z"/></g></g></svg>