<svg id="Layer_1" xmlns="http://www.w3.org/2000/svg" width="1000" height="1000" viewBox="0 0 1000 1000"><style>.st0{fill:none;stroke:#232323;stroke-width:2;stroke-linejoin:round;stroke-miterlimit:10}</style><g id="XMLID_245_"><g id="XMLID_204_"><path id="XMLID_210_" class="st0" d="M500 396.2L105.7 812.1 500 999.6z"/><path id="XMLID_209_" class="st0" d="M500-.4L105.7 812.1 500 396.2z"/><path id="XMLID_208_" class="st0" d="M105.7 191.9L500 396.2v603.4z"/><path id="XMLID_207_" class="st0" d="M500-.4L105.7 191.9c8.9 4.6 394.3 204.3 394.3 204.3V-.4z"/><path id="XMLID_206_" class="st0" d="M500 396.2l103.5 103.3 290.8 312.6L500 999.6z"/><path id="XMLID_205_" class="st0" d="M500-.4l394.3 812.5-290.8-312.6L500 396.2z"/><path id="XMLID_211_" class="st0" d="M894.3 191.9L500 396.2v603.4z"/><path id="XMLID_212_" class="st0" d="M500-.4l394.3 192.3C885.4 196.5 500 396.2 500 396.2V-.4z"/></g><g id="XMLID_223_"><path id="XMLID_231_" class="st0" d="M603.4 499.6L499.5 395.5 187.6 105.4 0 499.6z"/><path id="XMLID_230_" class="st0" d="M1000 499.6L187.6 105.4l311.9 290.1 103.9 104.1z"/><path id="XMLID_229_" class="st0" d="M807.7 105.4L603.4 499.6H0z"/><path id="XMLID_228_" class="st0" d="M1000 499.6L807.7 105.4c-4.6 8.9-204.3 394.3-204.3 394.3l396.6-.1z"/><path id="XMLID_227_" class="st0" d="M603.4 499.6L187.6 893.9 0 499.6z"/><path id="XMLID_226_" class="st0" d="M1000 499.6L187.6 893.9l415.8-394.3z"/><path id="XMLID_225_" class="st0" d="M807.7 893.9L603.4 499.6H0z"/><path id="XMLID_224_" class="st0" d="M1000 499.6L807.7 893.9c-4.6-8.9-204.3-394.3-204.3-394.3H1000z"/></g></g></svg>