<svg id="Layer_1" xmlns="http://www.w3.org/2000/svg" width="100" height="100" viewBox="0 0 100 100"><style>.st0{fill:none;stroke:#232323;stroke-linejoin:round;stroke-miterlimit:10}</style><g id="XMLID_1140_"><path id="XMLID_1115_" class="st0" d="M50 98.6l21.1-5.1L50 60.2v38.4z"/><path id="XMLID_1114_" class="st0" d="M71.1 93.5L50 1.8v58.4l21.1 33.3z"/><path id="XMLID_1113_" class="st0" d="M50 98.6l-21.1-5.1L50 60.2v38.4z"/><path id="XMLID_1112_" class="st0" d="M28.8 93.5L50 1.8v58.4L28.8 93.5z"/><path id="XMLID_1107_" class="st0" d="M88.1 79.9L50 60.2V1.8l38.1 78.1z"/><path id="XMLID_1106_" class="st0" d="M50 98.6L88.1 80C87.3 79.5 50 60.2 50 60.2v38.4z"/><path id="XMLID_1101_" class="st0" d="M11.8 79.9L50 60.2V1.8L11.8 79.9z"/><path id="XMLID_1100_" class="st0" d="M50 98.6L11.8 79.9c.9-.4 38.2-19.7 38.2-19.7v38.4z"/><path id="XMLID_1099_" class="st0" d="M50 1.8l48 58.4H50V1.8z"/><path id="XMLID_1098_" class="st0" d="M98 60.2L50 98.6V60.2h48z"/><path id="XMLID_1097_" class="st0" d="M50 1.8L2 60.2h48V1.8z"/><path id="XMLID_1096_" class="st0" d="M1.9 60.2l48 38.4V60.2h-48z"/><path id="XMLID_1095_" class="st0" d="M50 1.8L2.3 40.9 50 60.2V1.8z"/><path id="XMLID_1094_" class="st0" d="M50 98.6L2.3 40.9 50 60.2v38.4z"/><path id="XMLID_1093_" class="st0" d="M50 1.8l47.7 39.1L50 60.2V1.8z"/><path id="XMLID_1092_" class="st0" d="M50 98.6l47.7-57.7L50 60.2v38.4z"/><path id="XMLID_1111_" class="st0" d="M50 60.2L88.1 20 50 1.8v58.4z"/><path id="XMLID_1109_" class="st0" d="M50 98.6L88.1 20 50 60.2v38.4z"/><path id="XMLID_1105_" class="st0" d="M50 60.2L11.8 20 50 1.8v58.4z"/><path id="XMLID_1103_" class="st0" d="M50 98.6L11.8 20 50 60.2v38.4z"/><path id="XMLID_1110_" class="st0" d="M50 1.8l21.6 4.6L50 60.2V1.8z"/><path id="XMLID_1108_" class="st0" d="M50 98.6L71.6 6.4 50 60.2v38.4z"/><path id="XMLID_1104_" class="st0" d="M50 1.8L28.4 6.4 50 60.2V1.8z"/><path id="XMLID_1102_" class="st0" d="M50 98.6L28.4 6.4 50 60.2v38.4z"/></g></svg>