<svg id="Layer_1" xmlns="http://www.w3.org/2000/svg" width="1920" height="1080" viewBox="0 0 1920 1080"><style>.st0{fill:none;stroke:#232323;stroke-miterlimit:10}</style><g id="XMLID_1140_"><path id="XMLID_1115_" class="st0" d="M959.5 1080l236-56.6-236-371.7z"/><path id="XMLID_1114_" class="st0" d="M1195.5 1023.4L959.5 0v651.7z"/><path id="XMLID_1113_" class="st0" d="M959.5 1080l-236-56.6 236-371.7z"/><path id="XMLID_1112_" class="st0" d="M723.5 1023.4L959.5 0v651.7z"/><path id="XMLID_1107_" class="st0" d="M1385.3 872.3L959.5 651.7V0z"/><path id="XMLID_1106_" class="st0" d="M959.5 1080l425.8-207.7c-9.6-5-425.8-220.6-425.8-220.6V1080z"/><path id="XMLID_1101_" class="st0" d="M533.7 872.3l425.8-220.6V0z"/><path id="XMLID_1100_" class="st0" d="M959.5 1080L533.7 872.3c9.6-5 425.8-220.6 425.8-220.6V1080z"/><path id="XMLID_1099_" class="st0" d="M959.5 0l536.1 651.7H959.5z"/><path id="XMLID_1098_" class="st0" d="M1495.6 651.7L959.5 1080V651.7z"/><path id="XMLID_1097_" class="st0" d="M959.5 0L423.4 651.7h536.1z"/><path id="XMLID_1096_" class="st0" d="M423.4 651.7L959.5 1080V651.7z"/><path id="XMLID_1095_" class="st0" d="M959.5 0L427.4 436.1l532.1 215.6z"/><path id="XMLID_1094_" class="st0" d="M959.5 1080L427.4 436.1l532.1 215.6z"/><path id="XMLID_1093_" class="st0" d="M959.5 0l532.1 436.1-532.1 215.6z"/><path id="XMLID_1092_" class="st0" d="M959.5 1080l532.1-643.9-532.1 215.6z"/><path id="XMLID_1111_" class="st0" d="M959.5 651.7l425.8-449.1L959.5 0z"/><path id="XMLID_1109_" class="st0" d="M959.5 1080l425.8-877.4-425.8 449.1z"/><path id="XMLID_1105_" class="st0" d="M959.5 651.7L533.7 202.6 959.5 0z"/><path id="XMLID_1103_" class="st0" d="M959.5 1080L533.7 202.6l425.8 449.1z"/><path id="XMLID_1110_" class="st0" d="M959.5 0l241.3 51.4-241.3 600.3z"/><path id="XMLID_1108_" class="st0" d="M959.5 1080L1200.8 51.4 959.5 651.7z"/><path id="XMLID_1104_" class="st0" d="M959.5 0L718.2 51.4l241.3 600.3z"/><path id="XMLID_1102_" class="st0" d="M959.5 1080L718.2 51.4l241.3 600.3z"/></g></svg>