<svg id="Layer_1" xmlns="http://www.w3.org/2000/svg" width="50" height="50" viewBox="0 0 50 50"><style>.st0{fill:none;stroke:#fff;stroke-width:.5;stroke-linejoin:round;stroke-miterlimit:10}</style><g id="XMLID_245_"><g id="XMLID_204_"><path id="XMLID_210_" class="st0" d="M25.2 19.9L6.7 39.4l18.5 8.8V19.9z"/><path id="XMLID_209_" class="st0" d="M25.2 1.4l-18.5 38 18.5-19.5V1.4z"/><path id="XMLID_208_" class="st0" d="M6.7 10.4L25.2 20v28.3L6.7 10.4z"/><path id="XMLID_207_" class="st0" d="M25.2 1.4l-18.5 9c.4.2 18.5 9.6 18.5 9.6V1.4z"/><path id="XMLID_206_" class="st0" d="M25.2 19.9l4.9 4.9 13.6 14.6-18.5 8.8V19.9z"/><path id="XMLID_205_" class="st0" d="M25.2 1.4l18.5 38.1-13.6-14.7-4.9-4.9V1.4z"/><path id="XMLID_211_" class="st0" d="M43.7 10.4L25.2 20v28.3l18.5-37.9z"/><path id="XMLID_212_" class="st0" d="M25.2 1.4l18.5 9c-.4.2-18.5 9.6-18.5 9.6V1.4z"/></g><g id="XMLID_223_"><path id="XMLID_231_" class="st0" d="M30.1 24.8l-4.9-4.9L10.6 6.3 1.8 24.8h28.3z"/><path id="XMLID_230_" class="st0" d="M48.7 24.8L10.6 6.3l14.6 13.6 4.9 4.9h18.6z"/><path id="XMLID_229_" class="st0" d="M39.6 6.3L30 24.8H1.8L39.6 6.3z"/><path id="XMLID_228_" class="st0" d="M48.7 24.8l-9-18.5c-.2.4-9.6 18.5-9.6 18.5h18.6z"/><path id="XMLID_227_" class="st0" d="M30.1 24.8L10.6 43.3 1.8 24.8h28.3z"/><path id="XMLID_226_" class="st0" d="M48.7 24.8L10.6 43.3l19.5-18.5h18.6z"/><path id="XMLID_225_" class="st0" d="M39.6 43.3L30 24.8H1.8l37.8 18.5z"/><path id="XMLID_224_" class="st0" d="M48.7 24.8l-9 18.5c-.2-.4-9.6-18.5-9.6-18.5h18.6z"/></g></g></svg>