<?xml version="1.0" encoding="utf-8"?>
<!-- Generator: Adobe Illustrator 22.1.0, SVG Export Plug-In . SVG Version: 6.00 Build 0)  -->
<svg version="1.1" id="Layer_1" xmlns="http://www.w3.org/2000/svg" xmlns:xlink="http://www.w3.org/1999/xlink" x="0px" y="0px"
	 width="1000px" height="1000px" viewBox="0 0 1000 1000" style="enable-background:new 0 0 1000 1000;" xml:space="preserve">
<style type="text/css">
	.st0{fill:none;stroke:#232323;stroke-width:2;stroke-linejoin:round;stroke-miterlimit:10;}
</style>
<g id="XMLID_245_">
	<g id="XMLID_204_">
		<polygon id="XMLID_210_" class="st0" points="500,396.2 105.7,812.1 500,999.6 		"/>
		<polygon id="XMLID_209_" class="st0" points="500,-0.4 105.7,812.1 500,396.2 		"/>
		<polygon id="XMLID_208_" class="st0" points="105.7,191.9 500,396.2 500,999.6 		"/>
		<path id="XMLID_207_" class="st0" d="M500-0.4L105.7,191.9c8.9,4.6,394.3,204.3,394.3,204.3V-0.4z"/>
		<polygon id="XMLID_206_" class="st0" points="500,396.2 603.5,499.5 894.3,812.1 500,999.6 		"/>
		<polygon id="XMLID_205_" class="st0" points="500,-0.4 894.3,812.1 603.5,499.5 500,396.2 		"/>
		<polygon id="XMLID_211_" class="st0" points="894.3,191.9 500,396.2 500,999.6 		"/>
		<path id="XMLID_212_" class="st0" d="M500-0.4l394.3,192.3C885.4,196.5,500,396.2,500,396.2V-0.4z"/>
	</g>
	<g id="XMLID_223_">
		<polygon id="XMLID_231_" class="st0" points="603.4,499.6 499.5,395.5 187.6,105.4 0,499.6 		"/>
		<polygon id="XMLID_230_" class="st0" points="1000,499.6 187.6,105.4 499.5,395.5 603.4,499.6 		"/>
		<polygon id="XMLID_229_" class="st0" points="807.7,105.4 603.4,499.6 0,499.6 		"/>
		<path id="XMLID_228_" class="st0" d="M1000,499.6L807.7,105.4c-4.6,8.9-204.3,394.3-204.3,394.3L1000,499.6L1000,499.6z"/>
		<polygon id="XMLID_227_" class="st0" points="603.4,499.6 187.6,893.9 0,499.6 		"/>
		<polygon id="XMLID_226_" class="st0" points="1000,499.6 187.6,893.9 603.4,499.6 		"/>
		<polygon id="XMLID_225_" class="st0" points="807.7,893.9 603.4,499.6 0,499.6 		"/>
		<path id="XMLID_224_" class="st0" d="M1000,499.6L807.7,893.9c-4.6-8.9-204.3-394.3-204.3-394.3L1000,499.6L1000,499.6z"/>
	</g>
</g>
</svg>
