<?xml version="1.0" encoding="utf-8"?>
<!-- Generator: Adobe Illustrator 22.1.0, SVG Export Plug-In . SVG Version: 6.00 Build 0)  -->
<svg version="1.1" id="Layer_1" xmlns="http://www.w3.org/2000/svg" xmlns:xlink="http://www.w3.org/1999/xlink" x="0px" y="0px"
	 width="1920px" height="1080px" viewBox="0 0 1920 1080" style="enable-background:new 0 0 1920 1080;" xml:space="preserve">
<style type="text/css">
	.st0{fill:none;stroke:#232323;stroke-miterlimit:10;}
</style>
<g id="XMLID_1140_">
	<polygon id="XMLID_1115_" class="st0" points="959.5,1080 1195.5,1023.4 959.5,651.7 	"/>
	<polygon id="XMLID_1114_" class="st0" points="1195.5,1023.4 959.5,0 959.5,651.7 	"/>
	<polygon id="XMLID_1113_" class="st0" points="959.5,1080 723.5,1023.4 959.5,651.7 	"/>
	<polygon id="XMLID_1112_" class="st0" points="723.5,1023.4 959.5,0 959.5,651.7 	"/>
	<polygon id="XMLID_1107_" class="st0" points="1385.3,872.3 959.5,651.7 959.5,0 	"/>
	<path id="XMLID_1106_" class="st0" d="M959.5,1080l425.8-207.7c-9.6-5-425.8-220.6-425.8-220.6V1080z"/>
	<polygon id="XMLID_1101_" class="st0" points="533.7,872.3 959.5,651.7 959.5,0 	"/>
	<path id="XMLID_1100_" class="st0" d="M959.5,1080L533.7,872.3c9.6-5,425.8-220.6,425.8-220.6V1080z"/>
	<polygon id="XMLID_1099_" class="st0" points="959.5,0 1495.6,651.7 959.5,651.7 	"/>
	<polygon id="XMLID_1098_" class="st0" points="1495.6,651.7 959.5,1080 959.5,651.7 	"/>
	<polygon id="XMLID_1097_" class="st0" points="959.5,0 423.4,651.7 959.5,651.7 	"/>
	<polygon id="XMLID_1096_" class="st0" points="423.4,651.7 959.5,1080 959.5,651.7 	"/>
	<polygon id="XMLID_1095_" class="st0" points="959.5,0 427.4,436.1 959.5,651.7 	"/>
	<polygon id="XMLID_1094_" class="st0" points="959.5,1080 427.4,436.1 959.5,651.7 	"/>
	<polygon id="XMLID_1093_" class="st0" points="959.5,0 1491.6,436.1 959.5,651.7 	"/>
	<polygon id="XMLID_1092_" class="st0" points="959.5,1080 1491.6,436.1 959.5,651.7 	"/>
	<polygon id="XMLID_1111_" class="st0" points="959.5,651.7 1385.3,202.6 959.5,0 	"/>
	<polygon id="XMLID_1109_" class="st0" points="959.5,1080 1385.3,202.6 959.5,651.7 	"/>
	<polygon id="XMLID_1105_" class="st0" points="959.5,651.7 533.7,202.6 959.5,0 	"/>
	<polygon id="XMLID_1103_" class="st0" points="959.5,1080 533.7,202.6 959.5,651.7 	"/>
	<polygon id="XMLID_1110_" class="st0" points="959.5,0 1200.8,51.4 959.5,651.7 	"/>
	<polygon id="XMLID_1108_" class="st0" points="959.5,1080 1200.8,51.4 959.5,651.7 	"/>
	<polygon id="XMLID_1104_" class="st0" points="959.5,0 718.2,51.4 959.5,651.7 	"/>
	<polygon id="XMLID_1102_" class="st0" points="959.5,1080 718.2,51.4 959.5,651.7 	"/>
</g>
</svg>
