<?xml version="1.0" encoding="utf-8"?>
<!-- Generator: Adobe Illustrator 22.1.0, SVG Export Plug-In . SVG Version: 6.00 Build 0)  -->
<svg version="1.1" id="Layer_1" xmlns="http://www.w3.org/2000/svg" xmlns:xlink="http://www.w3.org/1999/xlink" x="0px" y="0px"
	 width="50px" height="50px" viewBox="0 0 50 50" style="enable-background:new 0 0 50 50;" xml:space="preserve">
<style type="text/css">
	.st0{fill:none;stroke:#FFFFFF;stroke-width:0.5;stroke-linejoin:round;stroke-miterlimit:10;}
</style>
<g id="XMLID_101_">
	<g id="XMLID_100_">
		<path id="XMLID_105_" class="st0" d="M9.8,25L25,49l7.5-24H9.8z"/>
		<path id="XMLID_104_" class="st0" d="M47.6,25L25,49l7.5-24H47.6z"/>
		<path id="XMLID_103_" class="st0" d="M9.8,25L25,1l7.5,24H9.8z"/>
		<path id="XMLID_102_" class="st0" d="M47.6,25L25,1l7.5,24H47.6z"/>
	</g>
	<g id="XMLID_110_">
		<path id="XMLID_114_" class="st0" d="M40.3,25L25,1l-7.5,24C17.5,25,40.3,25,40.3,25z"/>
		<path id="XMLID_113_" class="st0" d="M2.5,25L25,1l-7.5,24C17.5,25,2.5,25,2.5,25z"/>
		<path id="XMLID_112_" class="st0" d="M40.3,25L25,49l-7.5-24C17.5,25,40.3,25,40.3,25z"/>
		<path id="XMLID_111_" class="st0" d="M2.5,25L25,49l-7.5-24C17.5,25,2.5,25,2.5,25z"/>
	</g>
</g>
</svg>
