<?xml version="1.0" encoding="utf-8"?>
<!-- Generator: Adobe Illustrator 22.1.0, SVG Export Plug-In . SVG Version: 6.00 Build 0)  -->
<svg version="1.1" id="Layer_1" xmlns="http://www.w3.org/2000/svg" xmlns:xlink="http://www.w3.org/1999/xlink" x="0px" y="0px"
	 width="1000px" height="1000px" viewBox="0 0 1000 1000" style="enable-background:new 0 0 1000 1000;" xml:space="preserve">
<style type="text/css">
	.st0{fill:none;stroke:#232323;stroke-miterlimit:10;}
</style>
<g id="XMLID_1140_">
	<polygon id="XMLID_1115_" class="st0" points="499.7,997.8 717.7,945.5 499.7,602.1 	"/>
	<polygon id="XMLID_1114_" class="st0" points="717.7,945.5 499.7,0 499.7,602.1 	"/>
	<polygon id="XMLID_1113_" class="st0" points="499.7,997.8 281.7,945.5 499.7,602.1 	"/>
	<polygon id="XMLID_1112_" class="st0" points="281.7,945.5 499.7,0 499.7,602.1 	"/>
	<polygon id="XMLID_1107_" class="st0" points="893.1,805.9 499.7,602.1 499.7,0 	"/>
	<path id="XMLID_1106_" class="st0" d="M499.7,997.8l393.4-191.9c-8.9-4.6-393.4-203.8-393.4-203.8V997.8z"/>
	<polygon id="XMLID_1101_" class="st0" points="106.3,805.9 499.7,602.1 499.7,0 	"/>
	<path id="XMLID_1100_" class="st0" d="M499.7,997.8L106.3,805.9c8.9-4.6,393.4-203.8,393.4-203.8V997.8z"/>
	<polygon id="XMLID_1099_" class="st0" points="499.7,0 995,602.1 499.7,602.1 	"/>
	<polygon id="XMLID_1098_" class="st0" points="995,602.1 499.7,997.8 499.7,602.1 	"/>
	<polygon id="XMLID_1097_" class="st0" points="499.7,0 4.4,602.1 499.7,602.1 	"/>
	<polygon id="XMLID_1096_" class="st0" points="4.4,602.1 499.7,997.8 499.7,602.1 	"/>
	<polygon id="XMLID_1095_" class="st0" points="499.7,0 8.1,402.9 499.7,602.1 	"/>
	<polygon id="XMLID_1094_" class="st0" points="499.7,997.8 8.1,402.9 499.7,602.1 	"/>
	<polygon id="XMLID_1093_" class="st0" points="499.7,0 991.3,402.9 499.7,602.1 	"/>
	<polygon id="XMLID_1092_" class="st0" points="499.7,997.8 991.3,402.9 499.7,602.1 	"/>
	<polygon id="XMLID_1111_" class="st0" points="499.7,602.1 893.1,187.2 499.7,0 	"/>
	<polygon id="XMLID_1109_" class="st0" points="499.7,997.8 893.1,187.2 499.7,602.1 	"/>
	<polygon id="XMLID_1105_" class="st0" points="499.7,602.1 106.3,187.2 499.7,0 	"/>
	<polygon id="XMLID_1103_" class="st0" points="499.7,997.8 106.3,187.2 499.7,602.1 	"/>
	<polygon id="XMLID_1110_" class="st0" points="499.7,0 722.7,47.5 499.7,602.1 	"/>
	<polygon id="XMLID_1108_" class="st0" points="499.7,997.8 722.7,47.5 499.7,602.1 	"/>
	<polygon id="XMLID_1104_" class="st0" points="499.7,0 276.7,47.5 499.7,602.1 	"/>
	<polygon id="XMLID_1102_" class="st0" points="499.7,997.8 276.7,47.5 499.7,602.1 	"/>
</g>
</svg>
