<?xml version="1.0" encoding="utf-8"?>
<!-- Generator: Adobe Illustrator 22.1.0, SVG Export Plug-In . SVG Version: 6.00 Build 0)  -->
<svg version="1.1" id="Layer_1" xmlns="http://www.w3.org/2000/svg" xmlns:xlink="http://www.w3.org/1999/xlink" x="0px" y="0px"
	 width="1920px" height="1080px" viewBox="0 0 1920 1080" style="enable-background:new 0 0 1920 1080;" xml:space="preserve">
<style type="text/css">
	.st0{fill:none;stroke:#232323;stroke-miterlimit:10;}
</style>
<g id="XMLID_245_">
	<g id="XMLID_204_">
		<polygon id="XMLID_210_" class="st0" points="959.5,428.1 533.8,877.1 959.5,1079.6 		"/>
		<polygon id="XMLID_209_" class="st0" points="959.5,0 533.8,877.1 959.5,428.1 		"/>
		<polygon id="XMLID_208_" class="st0" points="533.8,207.6 959.5,428.1 959.5,1079.6 		"/>
		<path id="XMLID_207_" class="st0" d="M959.5,0L533.8,207.6c9.6,5,425.7,220.5,425.7,220.5V0z"/>
		<polygon id="XMLID_206_" class="st0" points="959.5,428.1 1071.2,539.7 1385.2,877.1 959.5,1079.6 		"/>
		<polygon id="XMLID_205_" class="st0" points="959.5,0 1385.2,877.1 1071.2,539.7 959.5,428.1 		"/>
		<polygon id="XMLID_211_" class="st0" points="1385.2,207.6 959.5,428.1 959.5,1079.6 		"/>
		<path id="XMLID_212_" class="st0" d="M959.5,0l425.7,207.6c-9.6,5-425.7,220.5-425.7,220.5V0z"/>
	</g>
	<g id="XMLID_223_">
		<polygon id="XMLID_231_" class="st0" points="1071.2,539.8 959,427.4 622.2,114.2 419.7,539.8 		"/>
		<polygon id="XMLID_230_" class="st0" points="1499.3,539.8 622.2,114.2 959,427.4 1071.2,539.8 		"/>
		<polygon id="XMLID_229_" class="st0" points="1291.7,114.2 1071.2,539.8 419.7,539.8 		"/>
		<path id="XMLID_228_" class="st0" d="M1499.3,539.8l-207.6-425.7c-5,9.6-220.5,425.7-220.5,425.7H1499.3z"/>
		<polygon id="XMLID_227_" class="st0" points="1071.2,539.8 622.2,965.5 419.7,539.8 		"/>
		<polygon id="XMLID_226_" class="st0" points="1499.3,539.8 622.2,965.5 1071.2,539.8 		"/>
		<polygon id="XMLID_225_" class="st0" points="1291.7,965.5 1071.2,539.8 419.7,539.8 		"/>
		<path id="XMLID_224_" class="st0" d="M1499.3,539.8l-207.6,425.7c-5-9.6-220.5-425.7-220.5-425.7H1499.3z"/>
	</g>
</g>
</svg>
