<?xml version="1.0" encoding="utf-8"?>
<!-- Generator: Adobe Illustrator 22.1.0, SVG Export Plug-In . SVG Version: 6.00 Build 0)  -->
<svg version="1.1" id="Layer_1" xmlns="http://www.w3.org/2000/svg" xmlns:xlink="http://www.w3.org/1999/xlink" x="0px" y="0px"
	 width="100px" height="100px" viewBox="0 0 100 100" style="enable-background:new 0 0 100 100;" xml:space="preserve">
<style type="text/css">
	.st0{fill:none;stroke:#232323;stroke-linejoin:round;stroke-miterlimit:10;}
</style>
<g id="XMLID_245_">
	<g id="XMLID_204_">
		<path id="XMLID_210_" class="st0" d="M50.2,39.8l-38,40.1l38,18.1V39.8z"/>
		<path id="XMLID_209_" class="st0" d="M50.2,1.6l-38,78.3l38-40.1V1.6z"/>
		<path id="XMLID_208_" class="st0" d="M12.2,20.1l38,19.7V98L12.2,20.1z"/>
		<path id="XMLID_207_" class="st0" d="M50.2,1.6l-38,18.5c0.9,0.4,38,19.7,38,19.7V1.6z"/>
		<path id="XMLID_206_" class="st0" d="M50.2,39.8l10,10l28,30.1L50.2,98L50.2,39.8z"/>
		<path id="XMLID_205_" class="st0" d="M50.2,1.6l38,78.3l-28-30.1l-10-10L50.2,1.6z"/>
		<path id="XMLID_211_" class="st0" d="M88.2,20.1l-38,19.7V98L88.2,20.1z"/>
		<path id="XMLID_212_" class="st0" d="M50.2,1.6l38,18.5c-0.9,0.4-38,19.7-38,19.7S50.2,1.6,50.2,1.6z"/>
	</g>
	<g id="XMLID_223_">
		<path id="XMLID_231_" class="st0" d="M60.2,49.8l-10-10l-30.1-28L2,49.8H60.2z"/>
		<path id="XMLID_230_" class="st0" d="M98.4,49.8l-78.3-38l30.1,28l10,10H98.4z"/>
		<path id="XMLID_229_" class="st0" d="M79.9,11.8l-19.7,38H2L79.9,11.8z"/>
		<path id="XMLID_228_" class="st0" d="M98.4,49.8l-18.5-38c-0.4,0.9-19.7,38-19.7,38H98.4z"/>
		<path id="XMLID_227_" class="st0" d="M60.2,49.8l-40.1,38L2,49.8H60.2z"/>
		<path id="XMLID_226_" class="st0" d="M98.4,49.8l-78.3,38l40.1-38L98.4,49.8z"/>
		<path id="XMLID_225_" class="st0" d="M79.9,87.8l-19.7-38H2L79.9,87.8z"/>
		<path id="XMLID_224_" class="st0" d="M98.4,49.8l-18.5,38c-0.4-0.9-19.7-38-19.7-38S98.4,49.8,98.4,49.8z"/>
	</g>
</g>
</svg>
