<?xml version="1.0" encoding="utf-8"?>
<!-- Generator: Adobe Illustrator 22.1.0, SVG Export Plug-In . SVG Version: 6.00 Build 0)  -->
<svg version="1.1" id="Layer_1" xmlns="http://www.w3.org/2000/svg" xmlns:xlink="http://www.w3.org/1999/xlink" x="0px" y="0px"
	 width="50px" height="50px" viewBox="0 0 50 50" style="enable-background:new 0 0 50 50;" xml:space="preserve">
<style type="text/css">
	.st0{fill:none;stroke:#FFFFFF;stroke-width:0.5;stroke-linejoin:round;stroke-miterlimit:10;}
</style>
<g id="XMLID_1140_">
	<path id="XMLID_1115_" class="st0" d="M25,49.2l10.5-2.5L25,30.2C25,30.2,25,49.2,25,49.2z"/>
	<path id="XMLID_1114_" class="st0" d="M35.4,46.7L25,1.2v29L35.4,46.7z"/>
	<path id="XMLID_1113_" class="st0" d="M25,49.2l-10.5-2.5L25,30.2C25,30.2,25,49.2,25,49.2z"/>
	<path id="XMLID_1112_" class="st0" d="M14.5,46.7L25,1.2v29L14.5,46.7z"/>
	<path id="XMLID_1107_" class="st0" d="M43.9,39.9L25,30.2v-29L43.9,39.9z"/>
	<path id="XMLID_1106_" class="st0" d="M25,49.2L43.9,40C43.5,39.7,25,30.2,25,30.2S25,49.2,25,49.2z"/>
	<path id="XMLID_1101_" class="st0" d="M6,39.9L25,30.2v-29L6,39.9z"/>
	<path id="XMLID_1100_" class="st0" d="M25,49.2L6,39.9C6.5,39.7,25,30.2,25,30.2S25,49.2,25,49.2z"/>
	<path id="XMLID_1099_" class="st0" d="M25,1.2l23.8,29H25V1.2z"/>
	<path id="XMLID_1098_" class="st0" d="M48.8,30.2L25,49.2v-19H48.8z"/>
	<path id="XMLID_1097_" class="st0" d="M25,1.2l-23.8,29H25V1.2z"/>
	<path id="XMLID_1096_" class="st0" d="M1.1,30.2l23.8,19v-19C24.9,30.2,1.1,30.2,1.1,30.2z"/>
	<path id="XMLID_1095_" class="st0" d="M25,1.2L1.3,20.6L25,30.2V1.2z"/>
	<path id="XMLID_1094_" class="st0" d="M25,49.2L1.3,20.6L25,30.2C25,30.2,25,49.2,25,49.2z"/>
	<path id="XMLID_1093_" class="st0" d="M25,1.2l23.7,19.4L25,30.2V1.2z"/>
	<path id="XMLID_1092_" class="st0" d="M25,49.2l23.7-28.6L25,30.2C25,30.2,25,49.2,25,49.2z"/>
	<path id="XMLID_1111_" class="st0" d="M25,30.2l18.9-19.9L25,1.2V30.2z"/>
	<path id="XMLID_1109_" class="st0" d="M25,49.2l18.9-39L25,30.2C25,30.2,25,49.2,25,49.2z"/>
	<path id="XMLID_1105_" class="st0" d="M25,30.2L6,10.2l18.9-9V30.2z"/>
	<path id="XMLID_1103_" class="st0" d="M25,49.2L6,10.2L25,30.2C25,30.2,25,49.2,25,49.2z"/>
	<path id="XMLID_1110_" class="st0" d="M25,1.2l10.7,2.3L25,30.2V1.2z"/>
	<path id="XMLID_1108_" class="st0" d="M25,49.2L35.7,3.5L25,30.2C25,30.2,25,49.2,25,49.2z"/>
	<path id="XMLID_1104_" class="st0" d="M25,1.2L14.3,3.5L25,30.2V1.2z"/>
	<path id="XMLID_1102_" class="st0" d="M25,49.2L14.3,3.5L25,30.2C25,30.2,25,49.2,25,49.2z"/>
</g>
</svg>
