<?xml version="1.0" encoding="utf-8"?>
<!-- Generator: Adobe Illustrator 22.1.0, SVG Export Plug-In . SVG Version: 6.00 Build 0)  -->
<svg version="1.1" id="Layer_1" xmlns="http://www.w3.org/2000/svg" xmlns:xlink="http://www.w3.org/1999/xlink" x="0px" y="0px"
	 width="100px" height="100px" viewBox="0 0 100 100" style="enable-background:new 0 0 100 100;" xml:space="preserve">
<style type="text/css">
	.st0{fill:none;stroke:#232323;stroke-linejoin:round;stroke-miterlimit:10;}
</style>
<g id="XMLID_245_">
	<g id="XMLID_204_">
		<polygon id="XMLID_210_" class="st0" points="50.2,39.8 12.2,79.9 50.2,98 		"/>
		<polygon id="XMLID_209_" class="st0" points="50.2,1.6 12.2,79.9 50.2,39.8 		"/>
		<polygon id="XMLID_208_" class="st0" points="12.2,20.1 50.2,39.8 50.2,98 		"/>
		<path id="XMLID_207_" class="st0" d="M50.2,1.6l-38,18.5c0.9,0.4,38,19.7,38,19.7V1.6z"/>
		<polygon id="XMLID_206_" class="st0" points="50.2,39.8 60.2,49.8 88.2,79.9 50.2,98 		"/>
		<polygon id="XMLID_205_" class="st0" points="50.2,1.6 88.2,79.9 60.2,49.8 50.2,39.8 		"/>
		<polygon id="XMLID_211_" class="st0" points="88.2,20.1 50.2,39.8 50.2,98 		"/>
		<path id="XMLID_212_" class="st0" d="M50.2,1.6l38,18.5c-0.9,0.4-38,19.7-38,19.7V1.6z"/>
	</g>
	<g id="XMLID_223_">
		<polygon id="XMLID_231_" class="st0" points="60.2,49.8 50.2,39.8 20.1,11.8 2,49.8 		"/>
		<polygon id="XMLID_230_" class="st0" points="98.4,49.8 20.1,11.8 50.2,39.8 60.2,49.8 		"/>
		<polygon id="XMLID_229_" class="st0" points="79.9,11.8 60.2,49.8 2,49.8 		"/>
		<path id="XMLID_228_" class="st0" d="M98.4,49.8l-18.5-38c-0.4,0.9-19.7,38-19.7,38L98.4,49.8L98.4,49.8z"/>
		<polygon id="XMLID_227_" class="st0" points="60.2,49.8 20.1,87.8 2,49.8 		"/>
		<polygon id="XMLID_226_" class="st0" points="98.4,49.8 20.1,87.8 60.2,49.8 		"/>
		<polygon id="XMLID_225_" class="st0" points="79.9,87.8 60.2,49.8 2,49.8 		"/>
		<path id="XMLID_224_" class="st0" d="M98.4,49.8l-18.5,38c-0.4-0.9-19.7-38-19.7-38L98.4,49.8L98.4,49.8z"/>
	</g>
</g>
</svg>
