<?xml version="1.0" encoding="utf-8"?>
<!-- Generator: Adobe Illustrator 22.1.0, SVG Export Plug-In . SVG Version: 6.00 Build 0)  -->
<svg version="1.1" id="Layer_1" xmlns="http://www.w3.org/2000/svg" xmlns:xlink="http://www.w3.org/1999/xlink" x="0px" y="0px"
	 width="50px" height="50px" viewBox="0 0 50 50" style="enable-background:new 0 0 50 50;" xml:space="preserve">
<style type="text/css">
	.st0{fill:none;stroke:#FFFFFF;stroke-width:0.5;stroke-linejoin:round;stroke-miterlimit:10;}
</style>
<g id="XMLID_245_">
	<g id="XMLID_204_">
		<path id="XMLID_210_" class="st0" d="M25.2,19.9L6.7,39.4l18.5,8.8V19.9z"/>
		<path id="XMLID_209_" class="st0" d="M25.2,1.4L6.7,39.4l18.5-19.5V1.4z"/>
		<path id="XMLID_208_" class="st0" d="M6.7,10.4l18.5,9.6v28.3L6.7,10.4z"/>
		<path id="XMLID_207_" class="st0" d="M25.2,1.4l-18.5,9c0.4,0.2,18.5,9.6,18.5,9.6V1.4z"/>
		<path id="XMLID_206_" class="st0" d="M25.2,19.9l4.9,4.9l13.6,14.6l-18.5,8.8L25.2,19.9z"/>
		<path id="XMLID_205_" class="st0" d="M25.2,1.4l18.5,38.1L30.1,24.8l-4.9-4.9L25.2,1.4z"/>
		<path id="XMLID_211_" class="st0" d="M43.7,10.4l-18.5,9.6v28.3L43.7,10.4z"/>
		<path id="XMLID_212_" class="st0" d="M25.2,1.4l18.5,9c-0.4,0.2-18.5,9.6-18.5,9.6S25.2,1.4,25.2,1.4z"/>
	</g>
	<g id="XMLID_223_">
		<path id="XMLID_231_" class="st0" d="M30.1,24.8l-4.9-4.9L10.6,6.3L1.8,24.8H30.1z"/>
		<path id="XMLID_230_" class="st0" d="M48.7,24.8L10.6,6.3l14.6,13.6l4.9,4.9H48.7z"/>
		<path id="XMLID_229_" class="st0" d="M39.6,6.3l-9.6,18.5H1.8L39.6,6.3z"/>
		<path id="XMLID_228_" class="st0" d="M48.7,24.8l-9-18.5c-0.2,0.4-9.6,18.5-9.6,18.5H48.7z"/>
		<path id="XMLID_227_" class="st0" d="M30.1,24.8L10.6,43.3L1.8,24.8H30.1z"/>
		<path id="XMLID_226_" class="st0" d="M48.7,24.8L10.6,43.3l19.5-18.5L48.7,24.8z"/>
		<path id="XMLID_225_" class="st0" d="M39.6,43.3l-9.6-18.5H1.8L39.6,43.3z"/>
		<path id="XMLID_224_" class="st0" d="M48.7,24.8l-9,18.5c-0.2-0.4-9.6-18.5-9.6-18.5S48.7,24.8,48.7,24.8z"/>
	</g>
</g>
</svg>
